<svg id="Layer_1" data-name="Layer 1" xmlns="http://www.w3.org/2000/svg" xmlns:xlink="http://www.w3.org/1999/xlink" viewBox="0 0 156.16 133.24"><defs><style>.cls-1,.cls-4{fill:none;}.cls-2{fill:#fff;}.cls-3{clip-path:url(#clip-path);}.cls-4{stroke:#ff4a6e;stroke-width:2.21px;}.cls-10,.cls-11,.cls-12,.cls-5,.cls-6,.cls-7,.cls-8,.cls-9{isolation:isolate;}.cls-10,.cls-11,.cls-12,.cls-6,.cls-7,.cls-8,.cls-9{font-size:16.87px;font-family:WorkSans-Regular, Work Sans;}.cls-10,.cls-11,.cls-12,.cls-13,.cls-6,.cls-7,.cls-8,.cls-9{fill:#ff4a6e;}.cls-6{letter-spacing:0.12em;}.cls-7{letter-spacing:0.12em;}.cls-8{letter-spacing:0.08em;}.cls-9{letter-spacing:0.06em;}.cls-10{letter-spacing:0.09em;}.cls-12{letter-spacing:0.08em;}</style><clipPath id="clip-path" transform="translate(-16.18 -18.21)"><rect class="cls-1" x="16.18" y="18.21" width="156.15" height="133.24"/></clipPath></defs><polygon class="cls-2" points="1.1 1.1 1.1 102.95 85.42 102.95 136.51 130.56 122.2 102.95 155.05 102.95 155.05 1.1 1.1 1.1"/><g class="cls-3"><polygon class="cls-4" points="1.1 1.1 1.1 102.95 85.42 102.95 136.51 130.56 122.2 102.95 155.05 102.95 155.05 1.1 1.1 1.1"/></g><g class="cls-5"><text class="cls-6" transform="translate(16.87 50.69)">I</text><text class="cls-7" transform="translate(24.21 50.69)">N</text><text class="cls-7" transform="translate(39.04 50.69)">C</text><text class="cls-7" transform="translate(52.99 50.69)">R</text><text class="cls-6" transform="translate(66.57 50.69)">E</text><text class="cls-8" transform="translate(80.19 50.69)">V</text><text class="cls-9" transform="translate(93.62 50.69)">E</text><text class="cls-9" transform="translate(106.12 50.69)">-</text><text class="cls-10" transform="translate(115.82 50.69)">T</text><text class="cls-11" transform="translate(128.47 50.69)">E </text></g><g class="cls-5"><text class="cls-12" transform="translate(50.6 70.94)">A</text><text class="cls-6" transform="translate(63.86 70.94)">Q</text><text class="cls-7" transform="translate(78.91 70.94)">U</text><text class="cls-6" transform="translate(93.44 70.94)">I</text><text class="cls-11" transform="translate(100.91 70.94)">!</text></g><polygon class="cls-2" points="1.1 1.1 1.1 102.95 85.42 102.95 136.51 130.56 122.2 102.95 155.05 102.95 155.05 1.1 1.1 1.1"/><g class="cls-3"><polygon class="cls-4" points="1.1 1.1 1.1 102.95 85.42 102.95 136.51 130.56 122.2 102.95 155.05 102.95 155.05 1.1 1.1 1.1"/></g><g class="cls-5"><g class="cls-5"><path class="cls-13" d="M36.22,68.9H34.87V57.76h1.35Z" transform="translate(-16.18 -18.21)"/></g><g class="cls-5"><path class="cls-13" d="M51,68.9H49.28l-4.66-7.46-1.18-2.19h0L43.49,61V68.9H42.21V57.76h1.67l4.64,7.42,1.2,2.23h0l-.06-1.79V57.76H51Z" transform="translate(-16.18 -18.21)"/></g><g class="cls-5"><path class="cls-13" d="M64.29,68.26a4.79,4.79,0,0,1-2.76.8,5.2,5.2,0,0,1-2.74-.7,4.62,4.62,0,0,1-1.79-2,7.54,7.54,0,0,1,0-6.08,4.65,4.65,0,0,1,1.79-2,5.22,5.22,0,0,1,2.7-.7,5.08,5.08,0,0,1,2.69.66,4,4,0,0,1,1.63,1.94l-1.33.62a3,3,0,0,0-1.08-1.46,3.07,3.07,0,0,0-1.81-.49,3.67,3.67,0,0,0-2,.53,3.49,3.49,0,0,0-1.34,1.54,5.74,5.74,0,0,0-.47,2.4,4.93,4.93,0,0,0,1,3.28,3.39,3.39,0,0,0,2.74,1.19,3.34,3.34,0,0,0,1.95-.57,3.16,3.16,0,0,0,1.19-1.69L66,66A4.42,4.42,0,0,1,64.29,68.26Z" transform="translate(-16.18 -18.21)"/></g><g class="cls-5"><path class="cls-13" d="M75,64.27H72.34V68.9H71V57.76h4.22a4.05,4.05,0,0,1,2.73.88A3,3,0,0,1,79,61a3.06,3.06,0,0,1-.66,2,3.34,3.34,0,0,1-1.8,1.11l3.13,4.78H78ZM72.34,63h2.85c1.57,0,2.36-.67,2.36-2s-.79-2-2.36-2H72.34Z" transform="translate(-16.18 -18.21)"/></g><g class="cls-5"><path class="cls-13" d="M92.63,67.63V68.9H84.57V57.76h7.81V59H85.92v3.59h5v1.26h-5v3.75Z" transform="translate(-16.18 -18.21)"/></g><g class="cls-5"><path class="cls-13" d="M102.61,68.9h-1.54L96.84,57.76h1.45l2.83,7.69.71,2.21.71-2.19,2.84-7.71h1.45Z" transform="translate(-16.18 -18.21)"/></g><g class="cls-5"><path class="cls-13" d="M119.68,67.63V68.9h-8.06V57.76h7.81V59H113v3.59h5v1.26h-5v3.75Z" transform="translate(-16.18 -18.21)"/></g><g class="cls-5"><path class="cls-13" d="M129.38,65.18h-5.56v-1.4h5.56Z" transform="translate(-16.18 -18.21)"/></g><g class="cls-5"><path class="cls-13" d="M141.65,59h-3.88V68.9h-1.35V59h-3.88V57.76h9.11Z" transform="translate(-16.18 -18.21)"/></g><g class="cls-5"><path class="cls-13" d="M154.53,67.63V68.9h-8.06V57.76h7.81V59h-6.46v3.59h5v1.26h-5v3.75Z" transform="translate(-16.18 -18.21)"/></g></g><g class="cls-5"><g class="cls-5"><path class="cls-13" d="M74.85,86.05h-5l-1.18,3.09H67.21L71.55,78h1.6l4.32,11.13H76Zm-.48-1.26-1.51-4-.52-1.55h0l-.49,1.5-1.52,4Z" transform="translate(-16.18 -18.21)"/></g><g class="cls-5"><path class="cls-13" d="M90.22,90.9a2.54,2.54,0,0,0,.85-.46l.44,1.25a3.05,3.05,0,0,1-1.1.54,5.16,5.16,0,0,1-1.37.2,3.56,3.56,0,0,1-2.3-.73,3.2,3.2,0,0,1-1-2.42,5,5,0,0,1-2.42-.86,4.66,4.66,0,0,1-1.57-2,7,7,0,0,1-.55-2.88,6.85,6.85,0,0,1,.63-3,4.58,4.58,0,0,1,1.8-2,5.69,5.69,0,0,1,5.47,0,4.62,4.62,0,0,1,1.79,2,6.85,6.85,0,0,1,.64,3A7,7,0,0,1,91,86.45a4.64,4.64,0,0,1-1.59,2,4.76,4.76,0,0,1-2.43.86,1.77,1.77,0,0,0,.65,1.41,2.69,2.69,0,0,0,1.5.38A3.74,3.74,0,0,0,90.22,90.9Zm-6.62-4a3.77,3.77,0,0,0,5.48,0,5.85,5.85,0,0,0,0-6.57,3.75,3.75,0,0,0-5.48,0,5.9,5.9,0,0,0,0,6.57Z" transform="translate(-16.18 -18.21)"/></g><g class="cls-5"><path class="cls-13" d="M105.53,85a4.32,4.32,0,0,1-1.12,3.23,4.48,4.48,0,0,1-3.25,1.09,4.43,4.43,0,0,1-3.25-1.1A4.29,4.29,0,0,1,96.79,85V78h1.35v6.64a3.8,3.8,0,0,0,.73,2.58,3.63,3.63,0,0,0,4.57,0,3.8,3.8,0,0,0,.74-2.58V78h1.35Z" transform="translate(-16.18 -18.21)"/></g><g class="cls-5"><path class="cls-13" d="M112.79,89.14h-1.35V78h1.35Z" transform="translate(-16.18 -18.21)"/></g><g class="cls-5"><path class="cls-13" d="M120.17,87.42a1.08,1.08,0,0,1,.3.79,1.1,1.1,0,0,1-.3.8,1.08,1.08,0,0,1-.79.3,1,1,0,0,1-1.1-1.1,1.08,1.08,0,0,1,.3-.79,1.1,1.1,0,0,1,.8-.3A1.08,1.08,0,0,1,120.17,87.42Zm-.08-4.59-.21,2.8h-1l-.2-2.8V78h1.42Z" transform="translate(-16.18 -18.21)"/></g></g></svg>