<?xml version="1.0" encoding="utf-8"?>
<!-- Generator: Adobe Illustrator 25.2.3, SVG Export Plug-In . SVG Version: 6.00 Build 0)  -->
<svg version="1.1" id="Layer_1" xmlns="http://www.w3.org/2000/svg" xmlns:xlink="http://www.w3.org/1999/xlink" x="0px" y="0px"
	 viewBox="0 0 189 162" style="enable-background:new 0 0 189 162;" xml:space="preserve">
<style type="text/css">
	.st0{fill:#FFFFFF;}
	.st1{clip-path:url(#SVGID_2_);fill:none;stroke:#FF4A6E;stroke-width:2.209;}
	.st2{fill:#FF4A6E;}
	.st3{font-family:'WorkSans-Regular';}
	.st4{font-size:16.8717px;}
	.st5{letter-spacing:2;}
	.st6{letter-spacing:1;}
	.st7{clip-path:url(#SVGID_4_);fill:none;stroke:#FF4A6E;stroke-width:2.209;}
</style>
<polygon class="st0" points="17.28,19.31 17.28,121.16 101.6,121.16 152.69,148.77 138.38,121.16 171.23,121.16 171.23,19.31 "/>
<g>
	<defs>
		<rect id="SVGID_1_" x="16.18" y="18.21" width="156.15" height="133.24"/>
	</defs>
	<clipPath id="SVGID_2_">
		<use xlink:href="#SVGID_1_"  style="overflow:visible;"/>
	</clipPath>
	<polygon class="st1" points="17.28,19.31 17.28,121.16 101.6,121.16 152.69,148.77 138.38,121.16 171.23,121.16 171.23,19.31 	"/>
</g>
<text transform="matrix(1 0 0 1 33.0471 68.8956)"><tspan x="0" y="0" class="st2 st3 st4 st5">I</tspan><tspan x="7.34" y="0" class="st2 st3 st4 st5">N</tspan><tspan x="22.17" y="0" class="st2 st3 st4 st5">C</tspan><tspan x="36.12" y="0" class="st2 st3 st4 st5">R</tspan><tspan x="49.7" y="0" class="st2 st3 st4 st5">E</tspan><tspan x="63.32" y="0" class="st2 st3 st4 st5">V</tspan><tspan x="76.75" y="0" class="st2 st3 st4 st6">E</tspan><tspan x="89.25" y="0" class="st2 st3 st4 st6">-</tspan><tspan x="98.95" y="0" class="st2 st3 st4 st5">T</tspan><tspan x="111.6" y="0" class="st2 st3 st4">E </tspan></text>
<text transform="matrix(1 0 0 1 66.7732 89.1417)"><tspan x="0" y="0" class="st2 st3 st4 st5">A</tspan><tspan x="13.26" y="0" class="st2 st3 st4 st5">Q</tspan><tspan x="28.31" y="0" class="st2 st3 st4 st5">U</tspan><tspan x="42.84" y="0" class="st2 st3 st4 st5">I</tspan><tspan x="50.31" y="0" class="st2 st3 st4">!</tspan></text>
<polygon class="st0" points="17.28,19.31 17.28,121.16 101.6,121.16 152.69,148.77 138.38,121.16 171.23,121.16 171.23,19.31 "/>
<g>
	<defs>
		<rect id="SVGID_3_" x="16.18" y="18.21" width="156.15" height="133.24"/>
	</defs>
	<clipPath id="SVGID_4_">
		<use xlink:href="#SVGID_3_"  style="overflow:visible;"/>
	</clipPath>
	<polygon class="st7" points="17.28,19.31 17.28,121.16 101.6,121.16 152.69,148.77 138.38,121.16 171.23,121.16 171.23,19.31 	"/>
</g>
<text transform="matrix(1 0 0 1 33.0471 68.8956)"><tspan x="0" y="0" class="st2 st3 st4 st5">I</tspan><tspan x="7.34" y="0" class="st2 st3 st4 st5">N</tspan><tspan x="22.17" y="0" class="st2 st3 st4 st5">C</tspan><tspan x="36.12" y="0" class="st2 st3 st4 st5">R</tspan><tspan x="49.7" y="0" class="st2 st3 st4 st5">E</tspan><tspan x="63.32" y="0" class="st2 st3 st4 st5">V</tspan><tspan x="76.75" y="0" class="st2 st3 st4 st6">E</tspan><tspan x="89.25" y="0" class="st2 st3 st4 st6">-</tspan><tspan x="98.95" y="0" class="st2 st3 st4 st5">T</tspan><tspan x="111.6" y="0" class="st2 st3 st4">E </tspan></text>
<text transform="matrix(1 0 0 1 66.7732 89.1417)"><tspan x="0" y="0" class="st2 st3 st4 st5">A</tspan><tspan x="13.26" y="0" class="st2 st3 st4 st5">Q</tspan><tspan x="28.31" y="0" class="st2 st3 st4 st5">U</tspan><tspan x="42.84" y="0" class="st2 st3 st4 st5">I</tspan><tspan x="50.31" y="0" class="st2 st3 st4">!</tspan></text>
</svg>
