<svg id="Layer_1" data-name="Layer 1" xmlns="http://www.w3.org/2000/svg" viewBox="0 0 365.73 388.3"><defs><style>.cls-1{fill:none;stroke:#000;stroke-miterlimit:10;stroke-width:3.57px;}</style></defs><path d="M141.47,377.79,139,384.94l-12-4.16-1.57,4.51,12,4.16-2.42,7-15.2-5.29-1.65,4.73,21.08,7.32L149,375.1l-21.68-7.53-1.64,4.73,15.8,5.49Zm15,29.62,8.68,1,7.13-15.57,2.68-6.4H175l1.12,6.88,3.49,16.73,9,1L192,381.52l-5.6-.64-1.76,15.4-.67,8.68h-.09l-5.41-25-5.06-.57-10.93,23.11h-.09l1.25-8.61,1.76-15.41-5.56-.63-3.36,29.56Zm48.88,2.32,6.2-.47L209.3,379.6l-6.2.46,2.22,29.67Zm19-1.92,25.52-5.89-1.13-4.87L239,399.29l-5.56-24.11-6.06,1.4,5.56,24.11-9.71,2.24,1.13,4.88Zm54.33-23.42,2.51,4.33,19.25-11.19-14.95-25.72-5.38,3.12,6.12,10.52-11,6.37,2.54,4.36,10.95-6.36,3.78,6.51-13.87,8.06Zm42.15-29.56a6.92,6.92,0,0,1-6,2c-2.2-.37-4.42-1.76-6.66-4.19s-3.46-4.75-3.64-7a6.91,6.91,0,0,1,2.46-5.87,7,7,0,0,1,6.08-2q3.3.54,6.66,4.19c2.24,2.43,3.46,4.75,3.64,7a6.94,6.94,0,0,1-2.5,5.9m3.45,3.74a15,15,0,0,0,4.35-6.52,12.33,12.33,0,0,0,.07-7.27,20.14,20.14,0,0,0-11.1-12,12.35,12.35,0,0,0-7.25-.51,15.1,15.1,0,0,0-6.85,3.81,14.92,14.92,0,0,0-4.33,6.51,12.35,12.35,0,0,0-.05,7.25,20.17,20.17,0,0,0,11.09,12,12.42,12.42,0,0,0,7.24.53,15.07,15.07,0,0,0,6.83-3.8M356,320.09l12.62-22.95-4.38-2.41-4.83,8.77-21.68-11.93-3,5.45L356.43,309l-4.81,8.73,4.39,2.41Zm17.86-36.25,1.84-6-17-5.21q-3.58-1.09-4.84-3.14a6.11,6.11,0,0,1-.29-5.18,6.18,6.18,0,0,1,3.16-4.15q2.19-1,5.77.1l17,5.22,1.83-5.95-17.24-5.29q-5.78-1.78-9.65.4t-5.71,8.17q-1.85,6,.14,10t7.76,5.76l17.23,5.29Zm6.66-54.56a6.91,6.91,0,0,1-3.07,5.58c-1.86,1.23-4.43,1.72-7.73,1.47s-5.77-1.13-7.42-2.63a6.9,6.9,0,0,1-2.19-6,7,7,0,0,1,3.08-5.62c1.85-1.23,4.43-1.72,7.72-1.47s5.77,1.12,7.42,2.62a7,7,0,0,1,2.19,6m5.08.39a15.09,15.09,0,0,0-1.27-7.74,12.32,12.32,0,0,0-4.9-5.37,20.15,20.15,0,0,0-16.31-1.24,12.27,12.27,0,0,0-5.66,4.57,16.59,16.59,0,0,0-1.16,15.16,12.35,12.35,0,0,0,4.91,5.35,20.14,20.14,0,0,0,16.31,1.24,12.34,12.34,0,0,0,5.66-4.54,15,15,0,0,0,2.42-7.43m-20.84-61.9-4.44,1.2,2.28,8.4-.66.17a5.18,5.18,0,0,1-4.76-.76,8.3,8.3,0,0,1-2.8-4.56,7.57,7.57,0,0,1,.9-6.69c1.31-1.82,3.61-3.17,6.88-4.06s5.79-.82,7.88.1a7.38,7.38,0,0,1,4.15,5.14,7.54,7.54,0,0,1,0,4.47,6.11,6.11,0,0,1-2.73,3.28l3.89,4.88a12,12,0,0,0,4.09-6.08,15.54,15.54,0,0,0-.36-8.06,15.24,15.24,0,0,0-3.78-6.89,12.52,12.52,0,0,0-6.45-3.48,17.68,17.68,0,0,0-8.38.43,18.16,18.16,0,0,0-7.49,3.82,12.29,12.29,0,0,0-3.8,6,14.18,14.18,0,0,0,.14,7.44q1.59,5.87,6.18,7.43l-3.41,1.06,1.19,4.4,15.19-4.12-3.68-13.57Zm3.69-31.62-2.63-4.93-15.2,8.1L346.06,142l0-.07,3.25-4.65,10.5-17.39-3.33-6.24-26.26,14,2.63,4.93,15.2-8.1,4.57-2.64,0,0-3.21,4.62-10.54,17.42,3.35,6.28,26.26-14Zm-21.38-35.34-3.75-5-23.71,18,3.76,5,23.7-18ZM333,83.51l-4.08-3.83L317.09,92.24l-3.48,4-.07-.06,1.59-5.44,4.34-19.85L314.31,66,294,87.71,298,91.54,309.81,79l3.48-4,0,0-1.55,5.41-4.37,19.88,5.19,4.87L333,83.51Zm-32.9-27.73-4.79-2.87-8.84,14.78-2.55,4.61-.08,0,.39-5.65V46.29l-6.07-3.63L262.85,68.19l4.8,2.87,8.83-14.78L279,51.66l0,0-.36,5.61,0,20.35,6.12,3.66,15.26-25.53Zm-38.21-20-6-1.92-5.42,16.92c-.76,2.37-1.83,4-3.19,4.79a7.53,7.53,0,0,1-9.3-3c-.65-1.47-.59-3.4.17-5.77l5.42-16.91L237.63,28l-5.5,17.17q-1.84,5.74.28,9.65t8.11,5.82q6,1.9,10,0T256.33,53l5.51-17.17Zm-57.75-7.47,6.14.62a6.22,6.22,0,0,1,3.86,1.46,4,4,0,0,1,.95,3.38,4,4,0,0,1-1.6,3.12,6.16,6.16,0,0,1-4.08.65l-6.14-.62.87-8.61Zm10,25.93,7,.71-6.58-12.81a8.73,8.73,0,0,0,4.8-2.64,8.92,8.92,0,0,0,2.11-5.18,8.4,8.4,0,0,0-2.17-7c-1.74-1.79-4.29-2.85-7.67-3.2l-13-1.32-3,29.6,6.1.62,1.15-11.35,5.56.56,5.8,12Zm-64-1.19-1.61-7.4L160.9,43l-1-4.67L147.51,41l-1.57-7.22,15.72-3.42-1.06-4.89L138.8,30.2l6.32,29.07,22.42-4.88-1.07-4.88-16.34,3.55Zm-40.85-6,5.65-2.49a6.18,6.18,0,0,1,4.07-.64,4,4,0,0,1,2.5,2.47,4,4,0,0,1,.14,3.51,6.17,6.17,0,0,1-3.22,2.57L112.77,55,109.28,47Zm21.5,17.61,6.4-2.82-12.05-7.89A8.68,8.68,0,0,0,128,49.28a8.89,8.89,0,0,0-.72-5.55,8.4,8.4,0,0,0-5.36-5q-3.58-1.05-8.25,1l-12,5.29,12,27.22,5.6-2.47-4.59-10.43L119.79,57l11,7.62Zm-46-11A4,4,0,0,0,83,56.08a3.58,3.58,0,0,0,.57,2.9,3.25,3.25,0,0,0,4.65,1.13A2.09,2.09,0,0,0,89.13,59l.22,0a6,6,0,0,1,0,3.32,10.06,10.06,0,0,1-1.75,3.47l3.56.27a9.64,9.64,0,0,0,1.69-5.31,9.12,9.12,0,0,0-1.51-5,6.08,6.08,0,0,0-3-2.58,3.8,3.8,0,0,0-3.48.51m-8.56,40-5-5.69,9.51-8.36-3.15-3.59-9.51,8.37-4.88-5.56L75.31,68.25,72,64.49,55.25,79.22l19.64,22.35L92.12,86.42l-3.3-3.76-12.56,11ZM42.43,116.51l-5-5.17.05-.07,6.57,2.88,15.67,5.9,4-5.72L44.35,90.19l-3.67,5.24,17,19-23.81-9.28L30.5,110l16.94,19.11-23.66-9.5-3.85,5.5,29.34,10,4.11-5.87-11-12.67Z" transform="translate(-19.93 -22.77)"/><path class="cls-1" d="M72.07,142.59a139.69,139.69,0,0,1,256.58,47.16" transform="translate(-19.93 -22.77)"/></svg>